<svg width="28" height="28" viewBox="0 0 28 28" fill="none" xmlns="http://www.w3.org/2000/svg">
<path d="M25.6666 19.8333C25.6666 20.4522 25.4208 21.0457 24.9832 21.4832C24.5456 21.9208 23.9522 22.1667 23.3333 22.1667H7.96598C7.34719 22.1668 6.7538 22.4127 6.31631 22.8503L3.74731 25.4193C3.63147 25.5352 3.48388 25.614 3.32322 25.646C3.16255 25.6779 2.99602 25.6615 2.84467 25.5988C2.69333 25.5362 2.56397 25.43 2.47295 25.2938C2.38193 25.1576 2.33333 24.9975 2.33331 24.8337V5.83333C2.33331 5.21449 2.57915 4.621 3.01673 4.18342C3.45432 3.74583 4.04781 3.5 4.66665 3.5H23.3333C23.9522 3.5 24.5456 3.74583 24.9832 4.18342C25.4208 4.621 25.6666 5.21449 25.6666 5.83333V19.8333Z" stroke="#5B8CFF" stroke-width="2.33333" stroke-linecap="round" stroke-linejoin="round"/>
</svg>
